<svg xmlns="http://www.w3.org/2000/svg" viewBox="0 0 128 128" width="128" height="128">
  <defs>
    <linearGradient id="grad1" x1="0%" y1="0%" x2="100%" y2="100%">
      <stop offset="0%" style="stop-color:#667eea;stop-opacity:1" />
      <stop offset="100%" style="stop-color:#764ba2;stop-opacity:1" />
    </linearGradient>
  </defs>
  
  <!-- Background circle -->
  <circle cx="64" cy="64" r="60" fill="url(#grad1)" stroke="#fff" stroke-width="4"/>
  
  <!-- Document icon -->
  <rect x="32" y="24" width="48" height="64" rx="4" fill="#fff" opacity="0.9"/>
  <rect x="36" y="32" width="32" height="2" fill="#667eea"/>
  <rect x="36" y="40" width="32" height="2" fill="#667eea"/>
  <rect x="36" y="48" width="24" height="2" fill="#667eea"/>
  <rect x="36" y="56" width="28" height="2" fill="#667eea"/>
  <rect x="36" y="64" width="20" height="2" fill="#667eea"/>
  
  <!-- AI spark -->
  <circle cx="72" cy="72" r="8" fill="#ffd700"/>
  <path d="M72 68 L74 70 L76 68 L74 66 Z" fill="#fff"/>
  <path d="M68 72 L70 74 L68 76 L66 74 Z" fill="#fff"/>
  <path d="M76 72 L78 74 L76 76 L74 74 Z" fill="#fff"/>
  <path d="M72 76 L74 78 L76 76 L74 74 Z" fill="#fff"/>
</svg>